# xmcd
#
# Track frame offsets:
#	150
#	15571
#	29577
#	41548
#	59606
#	73801
#	86001
#	99822
#	119479
#	133917
#
# Disc length: 1849 seconds
#
# Revision: 1
# Processed by: cddbd v1.4b42PL1 Copyright (c) Steve Scherf et al.
# Submitted via: CDmax 1.7.6
#
DISCID=8b07370a
DTITLE=Used Carlotta - Reckless Wheels
DYEAR=1900
DGENRE=
TTITLE0=I'll Be Gone
TTITLE1=Dead Girl Song
TTITLE2=Reckless Wheels
TTITLE3=Big Fat Moon
TTITLE4=Grace's Waltz
TTITLE5=War All The Time
TTITLE6=Nobody Knows But Me
TTITLE7=When You Fall
TTITLE8=Everything Will Be Fine
TTITLE9=I'll Be Gone (reprise)
EXTD=
EXTT0=
EXTT1=
EXTT2=
EXTT3=
EXTT4=
EXTT5=
EXTT6=
EXTT7=
EXTT8=
EXTT9=
PLAYORDER=
